#tb 0: 1/600
0,          0,          0,        1,    57600, 0x3718ad00
0,         60,         60,        1,    57600, 0x54861558
0,        120,        120,        1,    57600, 0xea1d6233
0,        180,        180,        1,    57600, 0xf669a2fd
0,        240,        240,        1,    57600, 0xc9f76f31
0,        300,        300,        1,    57600, 0xe23c6d7b
0,        360,        360,        1,    57600, 0xbc9d6167
0,        420,        420,        1,    57600, 0x0ca63477
0,        480,        480,        1,    57600, 0xc0850d22
0,        540,        540,        1,    57600, 0x735d10b2
0,        600,        600,        1,    57600, 0x561f3c4a
0,        660,        660,        1,    57600, 0x84db9cf1
0,        720,        720,        1,    57600, 0x9fb841f4
0,        780,        780,        1,    57600, 0xeaf262ab
0,        840,        840,        1,    57600, 0x264886b4
0,        900,        900,        1,    57600, 0x5edc5518
0,        960,        960,        1,    57600, 0xd3e60c72
0,       1020,       1020,        1,    57600, 0x9cabaed7
0,       1080,       1080,        1,    57600, 0x616716cf
0,       1140,       1140,        1,    57600, 0xa43f61aa
0,       1200,       1200,        1,    57600, 0xdba3a0bd
0,       1260,       1260,        1,    57600, 0xa7dd6dfa
0,       1320,       1320,        1,    57600, 0xc3fa6c84
0,       1380,       1380,        1,    57600, 0xb1275fb8
0,       1440,       1440,        1,    57600, 0x2e39331f
0,       1500,       1500,        1,    57600, 0x5b9e0bca
0,       1560,       1560,        1,    57600, 0x0e760f5a
0,       1620,       1620,        1,    57600, 0xc56c3e69
0,       1680,       1680,        1,    57600, 0x51da9fb8
0,       1740,       1740,        1,    57600, 0xe3a1432b
0,       1800,       1800,        1,    57600, 0xe1b360a3
0,       1860,       1860,        1,    57600, 0x30b383cd
0,       1920,       1920,        1,    57600, 0x950c5439
0,       1980,       1980,        1,    57600, 0x8f9d0ca2
